# xmcd
#
# Track frame offsets:
#	150
#	11134
#	25141
#	37885
#	50612
#	63987
#	77716
#	90520
#	107128
#	120661
#	133743
#	144994
#
# Disc length: 2098 seconds
#
# Revision: 0
# Processed by: cddbd v1.4PL0 Copyright (c) Steve Scherf et al.
# Submitted via: EasyCDDAExtractor 4.6.9.1
#
DISCID=9908300c
DTITLE=Bluegrass Alliance - Re-Alliance
DYEAR=2001
DGENRE=Bluegrass
TTITLE0=Friend Of The Devil
TTITLE1=Ready For The Times To Get Better
TTITLE2=Sea Of Heartbreak
TTITLE3=Panhandle Rag
TTITLE4=Satan's Jeweled Crown
TTITLE5=I Still Miss Someone
TTITLE6=Black Still Waters
TTITLE7=The Lonesome River
TTITLE8=Sugar Daddy
TTITLE9=Wayfaring Stranger
TTITLE10=The Seeker
TTITLE11=If You're Ever In Oklahoma
EXTD=
EXTT0=
EXTT1=
EXTT2=
EXTT3=
EXTT4=
EXTT5=
EXTT6=
EXTT7=
EXTT8=
EXTT9=
EXTT10=
EXTT11=
PLAYORDER=
